<svg width="226" height="237" viewBox="0 0 226 237" fill="none" xmlns="http://www.w3.org/2000/svg">
<g clip-path="url(#clip0_118_1336)">
<path d="M223.397 78.7606C216.124 76.0591 208.389 74.8199 200.636 75.114C192.883 75.4082 185.264 77.2299 178.217 80.4748C171.169 83.7196 164.832 88.3238 159.567 94.0232C154.303 99.7226 150.215 106.405 147.539 113.688L143.465 124.938L132.268 120.719C124.995 118.017 117.26 116.778 109.507 117.072C101.754 117.366 94.1354 119.188 87.0879 122.433C80.0403 125.678 73.7027 130.282 68.4383 135.981C63.174 141.681 59.0865 148.363 56.4102 155.646C45.0672 186.347 60.123 222.44 99.0174 237.221L214.871 280.025L257.675 164.172C271.732 125.01 254.098 90.1036 223.397 78.7606Z" fill="#FCA5A5" stroke="#FCA5A5" stroke-width="2" stroke-linecap="round" stroke-linejoin="round"/>
</g>
<path d="M216.921 43.1127C211.752 39.4416 205.828 36.765 199.488 35.2364C193.149 33.7079 186.52 33.3574 179.981 34.2051C173.441 35.0528 167.121 37.0821 161.381 40.1765C155.641 43.2708 150.595 47.3695 146.533 52.2374L140.306 59.7709L132.363 54.0742C127.194 50.4031 121.27 47.7266 114.931 46.198C108.592 44.6694 101.962 44.319 95.4231 45.1667C88.8837 46.0144 82.563 48.0437 76.8232 51.138C71.0835 54.2324 66.0377 58.3311 61.9752 63.199C44.7997 83.7072 47.5395 114.224 75.0967 134.107L157.501 192.413L222.314 115.023C243.89 88.7702 238.758 58.5636 216.921 43.1127Z" fill="#FECACA" stroke="#FECACA" stroke-width="2" stroke-linecap="round" stroke-linejoin="round"/>
<defs>
<clipPath id="clip0_118_1336">
<rect width="262" height="262" fill="white" transform="translate(0 126.575) rotate(-24.7225)"/>
</clipPath>
</defs>
</svg>
