<svg width="170" height="177" viewBox="0 0 170 177" fill="none" xmlns="http://www.w3.org/2000/svg">
<path d="M161.018 195.351V178.018C161.018 168.824 157.366 160.006 150.865 153.505C144.363 147.004 135.546 143.351 126.352 143.351H74.3516C65.1574 143.351 56.3398 147.004 49.8386 153.505C43.3373 160.006 39.6849 168.824 39.6849 178.018V195.351" fill="#93C5FD"/>
<path d="M161.018 195.351V178.018C161.018 168.824 157.366 160.006 150.865 153.505C144.363 147.004 135.546 143.351 126.352 143.351H74.3516C65.1574 143.351 56.3398 147.004 49.8386 153.505C43.3373 160.006 39.6849 168.824 39.6849 178.018V195.351" stroke="#93C5FD" stroke-width="16" stroke-linecap="round" stroke-linejoin="round"/>
<path d="M100.352 108.685C119.497 108.685 135.018 93.1639 135.018 74.018C135.018 54.8721 119.497 39.3513 100.352 39.3513C81.2057 39.3513 65.6849 54.8721 65.6849 74.018C65.6849 93.1639 81.2057 108.685 100.352 108.685Z" fill="#93C5FD" stroke="#93C5FD" stroke-width="16" stroke-linecap="round" stroke-linejoin="round"/>
<path d="M141.804 182.137V164.804C141.804 155.609 138.151 146.792 131.65 140.291C125.149 133.789 116.331 130.137 107.137 130.137H55.137C45.9428 130.137 37.1252 133.789 30.624 140.291C24.1227 146.792 20.4703 155.609 20.4703 164.804V182.137" fill="#BFDBFE"/>
<path d="M141.804 182.137V164.804C141.804 155.609 138.151 146.792 131.65 140.291C125.149 133.789 116.331 130.137 107.137 130.137H55.137C45.9428 130.137 37.1252 133.789 30.624 140.291C24.1227 146.792 20.4703 155.609 20.4703 164.804V182.137" stroke="#BFDBFE" stroke-width="16" stroke-linecap="round" stroke-linejoin="round"/>
<path d="M81.137 95.4703C100.283 95.4703 115.804 79.9495 115.804 60.8036C115.804 41.6578 100.283 26.137 81.137 26.137C61.9911 26.137 46.4703 41.6578 46.4703 60.8036C46.4703 79.9495 61.9911 95.4703 81.137 95.4703Z" fill="#BFDBFE" stroke="#BFDBFE" stroke-width="16" stroke-linecap="round" stroke-linejoin="round"/>
</svg>
