<svg width="194" height="197" viewBox="0 0 194 197" fill="none" xmlns="http://www.w3.org/2000/svg">
<path d="M122.5 224.583C178.879 224.583 224.583 178.879 224.583 122.5C224.583 66.121 178.879 20.4167 122.5 20.4167C66.1209 20.4167 20.4166 66.121 20.4166 122.5C20.4166 178.879 66.1209 224.583 122.5 224.583Z" fill="#BBF7D0" stroke="#86EFAC" stroke-width="16" stroke-linecap="round" stroke-linejoin="round"/>
<path d="M92.7937 91.875C95.1937 85.0524 99.9309 79.2994 106.166 75.6349C112.401 71.9703 119.732 70.6308 126.861 71.8535C133.989 73.0762 140.455 76.7822 145.112 82.3151C149.77 87.8481 152.319 94.8509 152.308 102.083C152.308 122.5 121.683 132.708 121.683 132.708" stroke="#86EFAC" stroke-width="16" stroke-linecap="round" stroke-linejoin="round"/>
<path d="M122.5 173.542H122.602" stroke="#86EFAC" stroke-width="16" stroke-linecap="round" stroke-linejoin="round"/>
</svg>
